<?xml version="1.0" encoding="utf-8"?>
<!-- Generator: Adobe Illustrator 25.4.0, SVG Export Plug-In . SVG Version: 6.00 Build 0)  -->
<svg version="1.1" id="레이어_1" xmlns="http://www.w3.org/2000/svg" xmlns:xlink="http://www.w3.org/1999/xlink" x="0px"
	 y="0px" viewBox="0 0 484.5 376.5" style="enable-background:new 0 0 484.5 376.5;" xml:space="preserve">
<style type="text/css">
	.st0{fill:#6b6b6b;}
	.st1{fill:#FF5700;}
	.st2{fill:#DD0030;}
	.st3{fill:#040000;}
	.st4{fill:#E95719;}
	.st5{fill:#77B900;}
	.st6{fill:#0081C6;}
	.st7{fill:none;stroke:#555555;stroke-miterlimit:10;stroke-dasharray:1.9987,1.9987;}
	.st8{fill:#E6E6E6;}
	.st9{fill:none;stroke:#FF5700;stroke-width:2;stroke-miterlimit:10;stroke-dasharray:1.9974,1.9974;}
	.st10{fill:none;stroke:#FF5700;stroke-width:2;stroke-miterlimit:10;}
	.st11{fill:#444444;}
	.st12{fill:none;stroke:#999999;stroke-width:2;stroke-miterlimit:10;}
</style>
<g>
	<path class="st0" d="M479.5,276h-390c-2.76,0-5-2.24-5-5V135c0-2.76,2.24-5,5-5h390c2.76,0,5,2.24,5,5v136
		C484.5,273.76,482.26,276,479.5,276z"/>
</g>
<g>
	<path d="M349.72,221.5h1.44l4.74-12.9h1.54l4.74,12.9h1.44v1.16h-4.5v-1.16h1.62l-1.34-3.62h-5.48l-1.32,3.62h1.62v1.16h-4.5V221.5
		z M359.02,216.7l-2.1-5.76c-0.16-0.46-0.22-0.9-0.22-0.9h-0.06c0,0-0.04,0.44-0.2,0.9l-2.14,5.76H359.02z"/>
	<path d="M364.92,221.5h1.84v-11.74h-1.84v-1.16H370v1.16h-1.84v11.74H370v1.16h-5.08V221.5z"/>
	<path d="M377.16,221.5H379v-11.74h-1.84v-1.16h6.4c0.86,0,1.74,0.08,2.4,0.4c1.38,0.62,2.26,2.02,2.26,3.82c0,1.94-1,3.44-2.56,4
		c-0.66,0.22-1.32,0.28-2.08,0.28h-3.18v4.4h1.84v1.16h-5.08V221.5z M383.44,215.9c0.66,0,1.22-0.08,1.7-0.28
		c1.04-0.42,1.66-1.42,1.66-2.8c0-1.28-0.54-2.2-1.46-2.68c-0.5-0.22-1.16-0.34-1.9-0.34h-3.04v6.1H383.44z"/>
	<path d="M390.7,209.72h-1.78v-1.12h3.14v11.44c0,0.82,0.22,1.5,1.14,1.5c0.36,0,0.56-0.04,0.56-0.04v1.16c0,0-0.38,0.06-0.78,0.06
		c-1.32,0-2.28-0.66-2.28-2.58V209.72z"/>
	<path d="M401.16,216.5h0.66v-0.42c0-1.88-1.02-2.54-2.42-2.54c-1.7,0-2.92,0.98-2.92,0.98l-0.64-1.02c0,0,1.36-1.14,3.64-1.14
		c2.44,0,3.7,1.3,3.7,3.78v4.96c0,0.3,0.16,0.44,0.44,0.44h1.1v1.12h-1.64c-0.86,0-1.2-0.38-1.2-1.1v-0.18
		c0-0.48,0.06-0.78,0.06-0.78h-0.04c0,0-0.86,2.3-3.44,2.3c-1.64,0-3.36-0.94-3.36-3C395.1,216.64,399.46,216.5,401.16,216.5z
		 M398.66,221.78c2.02,0,3.16-2.02,3.16-3.78v-0.48h-0.58c-0.82,0-4.74-0.08-4.74,2.24C396.5,220.8,397.26,221.78,398.66,221.78z"/>
	<path d="M407.28,213.72h-1.8v-1.12h1.82v-2.78h1.34v2.78h2.54v1.12h-2.54v5.16c0,2.36,1.5,2.68,2.28,2.68
		c0.28,0,0.46-0.04,0.46-0.04v1.18c0,0-0.24,0.04-0.58,0.04c-1.16,0-3.52-0.38-3.52-3.74V213.72z"/>
	<path d="M412.82,221.54h1.7v-7.82h-1.8v-1.12h1.8v-0.52c0-3.18,2.24-3.58,3.28-3.58c0.5,0,0.82,0.06,0.82,0.06v1.18
		c0,0-0.26-0.06-0.68-0.06c-0.68,0-2.06,0.24-2.06,2.38v0.54h2.56v1.12h-2.56v7.82h2v1.12h-5.06V221.54z"/>
	<path d="M425.02,212.36c2.94,0,5.32,2.24,5.32,5.22c0,3.04-2.38,5.32-5.32,5.32c-2.92,0-5.3-2.28-5.3-5.32
		C419.72,214.6,422.1,212.36,425.02,212.36z M425.02,221.68c2.16,0,3.92-1.76,3.92-4.1c0-2.28-1.76-4-3.92-4c-2.14,0-3.9,1.72-3.9,4
		C421.12,219.92,422.88,221.68,425.02,221.68z"/>
	<path d="M432.18,221.54h1.56v-7.38c0-0.3-0.16-0.44-0.44-0.44h-1.36v-1.12h1.9c0.84,0,1.22,0.34,1.22,1.14v0.68
		c0,0.42-0.04,0.76-0.04,0.76h0.04c0.5-1.52,1.62-2.68,3.18-2.68c0.28,0,0.56,0.06,0.56,0.06v1.34c0,0-0.26-0.04-0.52-0.04
		c-2.26,0-3.18,2.54-3.18,4.54v3.14h1.56v1.12h-4.48V221.54z"/>
	<path d="M440.06,221.54h1.7v-7.38c0-0.3-0.16-0.44-0.44-0.44h-1.36v-1.12h1.92c0.84,0,1.22,0.36,1.22,1.12v0.58
		c0,0.4-0.08,0.72-0.08,0.72h0.04c0.52-1.36,2.14-2.66,3.74-2.66c1.82,0,2.78,0.86,3.06,2.56h0.04c0.56-1.34,2.02-2.56,3.72-2.56
		c2.42,0,3.32,1.42,3.32,3.9v5.28h1.7v1.12h-3.06v-6.06c0-1.64-0.34-3-2.16-3c-2.04,0-3.38,2.16-3.38,4.24v3.7h1.7v1.12h-3.06v-6.06
		c0-1.52-0.2-3-2.12-3c-2.06,0-3.44,2.18-3.44,4.28v3.66h1.7v1.12h-4.76V221.54z"/>
</g>
<rect x="109.5" y="141" class="st1" width="220" height="32"/>
<g>
	<path class="st0" d="M187.33,151.75h2.21l2.22,5.62c0.26,0.67,0.58,1.66,0.58,1.66h0.03c0,0,0.3-0.99,0.56-1.66l2.22-5.62h2.21
		l0.91,11.36h-2.05l-0.48-6.35c-0.05-0.75-0.02-1.76-0.02-1.76h-0.03c0,0-0.34,1.1-0.61,1.76l-1.84,4.4h-1.81l-1.83-4.4
		c-0.27-0.66-0.62-1.78-0.62-1.78h-0.03c0,0,0.03,1.02-0.02,1.78l-0.48,6.35h-2.06L187.33,151.75z"/>
	<path class="st0" d="M204.36,154.76c2.5,0,4.5,1.78,4.5,4.27c0,2.51-2,4.27-4.48,4.27c-2.5,0-4.5-1.76-4.5-4.27
		C199.88,156.54,201.88,154.76,204.36,154.76z M204.37,161.58c1.31,0,2.42-1.02,2.42-2.54c0-1.5-1.1-2.54-2.42-2.54
		c-1.33,0-2.43,1.04-2.43,2.54C201.94,160.56,203.05,161.58,204.37,161.58z"/>
	<path class="st0" d="M210.48,154.96h1.95v1.41c0,0.3-0.03,0.58-0.03,0.58h0.03c0.37-1.17,1.34-2.1,2.59-2.1
		c0.19,0,0.37,0.03,0.37,0.03v2c0,0-0.21-0.03-0.48-0.03c-0.87,0-1.84,0.5-2.23,1.71c-0.13,0.4-0.18,0.85-0.18,1.33v3.23h-2.03
		V154.96z"/>
	<path class="st0" d="M220.34,154.76c2.35,0,3.62,1.71,3.62,3.87c0,0.24-0.05,0.78-0.05,0.78h-5.63c0.13,1.42,1.23,2.16,2.45,2.16
		c1.31,0,2.35-0.9,2.35-0.9l0.78,1.46c0,0-1.25,1.17-3.28,1.17c-2.71,0-4.39-1.95-4.39-4.27
		C216.2,156.52,217.91,154.76,220.34,154.76z M221.91,158.03c-0.03-1.1-0.72-1.7-1.62-1.7c-1.04,0-1.76,0.64-1.95,1.7H221.91z"/>
	<path class="st0" d="M225.64,151.75h2.03v3.94c0,0.4-0.03,0.69-0.03,0.69h0.03c0.4-0.78,1.39-1.62,2.82-1.62
		c1.81,0,2.83,0.94,2.83,3.11v5.25h-2.02v-4.83c0-0.99-0.26-1.66-1.3-1.66c-1.07,0-1.9,0.7-2.21,1.7c-0.1,0.32-0.13,0.67-0.13,1.06
		v3.75h-2.03V151.75z"/>
	<path class="st0" d="M239.65,151.75h2.07v11.36h-2.07V151.75z"/>
	<path class="st0" d="M244.6,151.75h3.67c1.23,0,1.79,0.1,2.29,0.32c1.14,0.51,1.86,1.6,1.86,3.1c0,1.36-0.72,2.63-1.92,3.11v0.03
		c0,0,0.16,0.16,0.38,0.56l2.34,4.24h-2.3l-2.26-4.24h-1.98v4.24h-2.07V151.75z M248.52,157.08c1.1,0,1.79-0.66,1.79-1.79
		c0-1.09-0.46-1.76-2.08-1.76h-1.57v3.55H248.52z"/>
</g>
<rect x="109.5" y="179" class="st1" width="220" height="48"/>
<g>
	<path class="st0" d="M150.65,189.75h2.21l2.23,5.62c0.26,0.67,0.58,1.67,0.58,1.67h0.03c0,0,0.3-0.99,0.56-1.67l2.22-5.62h2.21
		l0.91,11.36h-2.05l-0.48-6.35c-0.05-0.75-0.02-1.76-0.02-1.76h-0.03c0,0-0.34,1.1-0.61,1.76l-1.84,4.4h-1.81l-1.82-4.4
		c-0.27-0.66-0.62-1.78-0.62-1.78h-0.03c0,0,0.03,1.02-0.02,1.78l-0.48,6.35h-2.06L150.65,189.75z"/>
	<path class="st0" d="M167.68,192.76c2.5,0,4.5,1.78,4.5,4.27c0,2.51-2,4.27-4.48,4.27c-2.5,0-4.5-1.76-4.5-4.27
		C163.2,194.54,165.2,192.76,167.68,192.76z M167.69,199.58c1.31,0,2.42-1.02,2.42-2.54c0-1.5-1.1-2.54-2.42-2.54
		c-1.33,0-2.43,1.04-2.43,2.54C165.26,198.56,166.37,199.58,167.69,199.58z"/>
	<path class="st0" d="M173.8,192.96h1.95v1.41c0,0.3-0.03,0.58-0.03,0.58h0.03c0.37-1.17,1.34-2.1,2.59-2.1
		c0.19,0,0.37,0.03,0.37,0.03v2c0,0-0.21-0.03-0.48-0.03c-0.87,0-1.84,0.5-2.23,1.71c-0.13,0.4-0.18,0.85-0.18,1.33v3.23h-2.03
		V192.96z"/>
	<path class="st0" d="M183.66,192.76c2.35,0,3.62,1.71,3.62,3.87c0,0.24-0.05,0.78-0.05,0.78h-5.63c0.13,1.42,1.23,2.16,2.45,2.16
		c1.31,0,2.35-0.9,2.35-0.9l0.78,1.46c0,0-1.25,1.17-3.28,1.17c-2.71,0-4.39-1.95-4.39-4.27
		C179.52,194.52,181.23,192.76,183.66,192.76z M185.23,196.03c-0.03-1.1-0.72-1.7-1.62-1.7c-1.04,0-1.76,0.64-1.95,1.7H185.23z"/>
	<path class="st0" d="M188.96,189.75h2.03v3.94c0,0.4-0.03,0.69-0.03,0.69h0.03c0.4-0.78,1.39-1.62,2.82-1.62
		c1.81,0,2.83,0.94,2.83,3.11v5.25h-2.02v-4.83c0-0.99-0.26-1.66-1.3-1.66c-1.07,0-1.9,0.7-2.21,1.7c-0.1,0.32-0.13,0.67-0.13,1.06
		v3.75h-2.03V189.75z"/>
	<path class="st0" d="M208.62,198.21h-3.99l-0.96,2.91h-2.13l4-11.36h2.16l4,11.36h-2.13L208.62,198.21z M206.62,191.72
		c0,0-0.26,1.12-0.48,1.76l-1.01,3.04h2.98l-1.01-3.04c-0.21-0.64-0.45-1.76-0.45-1.76H206.62z"/>
	<path class="st0" d="M213.16,189.75h2.07v11.36h-2.07V189.75z"/>
	<path class="st0" d="M227.05,189.56c2.77,0,4.19,1.55,4.19,1.55l-0.99,1.54c0,0-1.3-1.2-3.11-1.2c-2.4,0-3.81,1.79-3.81,3.91
		c0,2.16,1.46,4.07,3.83,4.07c1.97,0,3.3-1.44,3.3-1.44l1.09,1.49c0,0-1.57,1.84-4.47,1.84c-3.47,0-5.87-2.58-5.87-5.92
		C221.21,192.09,223.71,189.56,227.05,189.56z"/>
	<path class="st0" d="M237.01,192.76c2.5,0,4.5,1.78,4.5,4.27c0,2.51-2,4.27-4.48,4.27c-2.5,0-4.5-1.76-4.5-4.27
		C232.52,194.54,234.52,192.76,237.01,192.76z M237.02,199.58c1.31,0,2.42-1.02,2.42-2.54c0-1.5-1.1-2.54-2.42-2.54
		c-1.33,0-2.43,1.04-2.43,2.54C234.59,198.56,235.69,199.58,237.02,199.58z"/>
	<path class="st0" d="M243.13,192.96h1.95v0.94c0,0.3-0.03,0.56-0.03,0.56h0.03c0.4-0.8,1.38-1.7,2.66-1.7
		c1.25,0,2.05,0.58,2.38,1.68h0.03c0.45-0.88,1.5-1.68,2.79-1.68c1.7,0,2.67,0.96,2.67,3.11v5.25h-2.03v-4.87
		c0-0.93-0.18-1.63-1.12-1.63c-1.04,0-1.73,0.83-1.97,1.86c-0.08,0.32-0.1,0.67-0.1,1.06v3.58h-2.03v-4.87
		c0-0.88-0.14-1.63-1.1-1.63c-1.06,0-1.74,0.83-2,1.87c-0.08,0.3-0.1,0.67-0.1,1.04v3.58h-2.03V192.96z"/>
	<path class="st0" d="M257.74,192.96h1.86v0.59c0,0.3-0.03,0.56-0.03,0.56h0.03c0,0,0.7-1.34,2.62-1.34c2.21,0,3.62,1.75,3.62,4.27
		c0,2.59-1.58,4.27-3.73,4.27c-1.62,0-2.34-1.12-2.34-1.12h-0.03c0,0,0.03,0.29,0.03,0.7v3.42h-2.03V192.96z M261.74,199.6
		c1.12,0,2.05-0.91,2.05-2.53c0-1.55-0.83-2.56-2.03-2.56c-1.06,0-2.05,0.77-2.05,2.58C259.71,198.35,260.4,199.6,261.74,199.6z"/>
	<path class="st0" d="M267.52,189.75h2.02v1.81h-2.02V189.75z M267.52,192.96h2.03v8.16h-2.03V192.96z"/>
	<path class="st0" d="M271.68,189.75h2.02v8.52c0,0.9,0.3,1.12,0.83,1.12c0.16,0,0.3-0.02,0.3-0.02v1.78c0,0-0.3,0.05-0.64,0.05
		c-1.12,0-2.51-0.29-2.51-2.62V189.75z"/>
	<path class="st0" d="M279.9,192.76c2.35,0,3.62,1.71,3.62,3.87c0,0.24-0.05,0.78-0.05,0.78h-5.63c0.13,1.42,1.23,2.16,2.45,2.16
		c1.31,0,2.35-0.9,2.35-0.9l0.78,1.46c0,0-1.25,1.17-3.28,1.17c-2.71,0-4.39-1.95-4.39-4.27
		C275.75,194.52,277.47,192.76,279.9,192.76z M281.47,196.03c-0.03-1.1-0.72-1.7-1.62-1.7c-1.04,0-1.76,0.64-1.95,1.7H281.47z"/>
	<path class="st0" d="M285.2,192.96h1.95v1.41c0,0.3-0.03,0.58-0.03,0.58h0.03c0.37-1.17,1.34-2.1,2.59-2.1
		c0.19,0,0.37,0.03,0.37,0.03v2c0,0-0.21-0.03-0.48-0.03c-0.87,0-1.84,0.5-2.23,1.71c-0.13,0.4-0.18,0.85-0.18,1.33v3.23h-2.03
		V192.96z"/>
</g>
<rect x="109.5" y="233" class="st1" width="220" height="32"/>
<g>
	<path class="st0" d="M191.42,243.75h2.21l2.22,5.62c0.26,0.67,0.58,1.66,0.58,1.66h0.03c0,0,0.3-0.99,0.56-1.66l2.22-5.62h2.21
		l0.91,11.36h-2.05l-0.48-6.35c-0.05-0.75-0.02-1.76-0.02-1.76h-0.03c0,0-0.34,1.1-0.61,1.76l-1.84,4.4h-1.81l-1.83-4.4
		c-0.27-0.66-0.62-1.78-0.62-1.78h-0.03c0,0,0.03,1.02-0.02,1.78l-0.48,6.35h-2.06L191.42,243.75z"/>
	<path class="st0" d="M208.45,246.76c2.5,0,4.5,1.78,4.5,4.27c0,2.51-2,4.27-4.48,4.27c-2.5,0-4.5-1.76-4.5-4.27
		C203.96,248.54,205.96,246.76,208.45,246.76z M208.46,253.58c1.31,0,2.42-1.02,2.42-2.54c0-1.5-1.1-2.54-2.42-2.54
		c-1.33,0-2.43,1.04-2.43,2.54C206.03,252.56,207.13,253.58,208.46,253.58z"/>
	<path class="st0" d="M214.89,243.75h3.87c3.5,0,5.79,2.08,5.79,5.67s-2.29,5.7-5.79,5.7h-3.87V243.75z M218.65,253.34
		c2.3,0,3.78-1.36,3.78-3.92c0-2.53-1.5-3.89-3.78-3.89h-1.7v7.81H218.65z"/>
	<path class="st0" d="M226.72,243.75h2.07l4.31,6.56c0.43,0.66,0.94,1.76,0.94,1.76h0.03c0,0-0.11-1.09-0.11-1.76v-6.56H236v11.36
		h-2.05l-4.31-6.55c-0.43-0.66-0.94-1.76-0.94-1.76h-0.03c0,0,0.11,1.09,0.11,1.76v6.55h-2.07V243.75z"/>
	<path class="st0" d="M238.88,243.75h2.07l4.31,6.56c0.43,0.66,0.94,1.76,0.94,1.76h0.03c0,0-0.11-1.09-0.11-1.76v-6.56h2.05v11.36
		h-2.05l-4.31-6.55c-0.43-0.66-0.94-1.76-0.94-1.76h-0.03c0,0,0.11,1.09,0.11,1.76v6.55h-2.07V243.75z"/>
</g>
<g>
	<path class="st0" d="M20.5,343c-2.21,0-4-1.79-4-4v-20c0-2.21,1.79-4,4-4h86c2.21,0,4,1.79,4,4v20c0,2.21-1.79,4-4,4H20.5z"/>
	<path class="st2" d="M106.5,316c1.65,0,3,1.35,3,3v20c0,1.65-1.35,3-3,3h-86c-1.65,0-3-1.35-3-3v-20c0-1.65,1.35-3,3-3H106.5
		 M106.5,314h-86c-2.76,0-5,2.24-5,5v20c0,2.76,2.24,5,5,5h86c2.76,0,5-2.24,5-5v-20C111.5,316.24,109.26,314,106.5,314L106.5,314z"
		/>
</g>
<g>
	<path class="st2" d="M37.88,331.34h-3.96l-1.12,3.14h-1.02l3.61-9.85h1.04l3.61,9.85h-1.02L37.88,331.34z M35.89,325.65
		c0,0-0.21,0.81-0.38,1.27l-1.32,3.57h3.39l-1.29-3.57c-0.17-0.46-0.38-1.27-0.38-1.27H35.89z"/>
	<path class="st2" d="M42.12,324.63h1.01l2.58,5.79c0.22,0.5,0.48,1.2,0.48,1.2h0.03c0,0,0.27-0.7,0.49-1.2l2.58-5.79h1l0.78,9.85
		h-0.97l-0.55-6.89c-0.04-0.53-0.03-1.37-0.03-1.37h-0.03c0,0-0.29,0.87-0.52,1.37l-2.31,5.06h-0.91l-2.31-5.06
		c-0.22-0.49-0.53-1.4-0.53-1.4h-0.03c0,0,0.01,0.87-0.03,1.4l-0.55,6.89h-0.97L42.12,324.63z"/>
	<path class="st2" d="M53.6,324.63h3.18c2.96,0,4.94,1.81,4.94,4.92c0,3.14-1.99,4.93-4.94,4.93H53.6V324.63z M56.68,333.61
		c2.42,0,4.03-1.43,4.03-4.06c0-2.62-1.62-4.05-4.03-4.05h-2.12v8.11H56.68z"/>
	<path class="st2" d="M72.02,324.46c2.28,0,3.5,1.15,3.5,1.15l-0.52,0.73c0,0-1.15-0.98-2.94-0.98c-2.38,0-3.99,1.83-3.99,4.17
		c0,2.42,1.67,4.22,3.91,4.22c1.92,0,3.1-1.44,3.1-1.44v-1.67H73.4v-0.87H76v4.71h-0.9v-0.74c0-0.21,0.01-0.42,0.01-0.42h-0.03
		c0,0-1.13,1.33-3.21,1.33c-2.69,0-4.82-2.17-4.82-5.1C67.06,326.71,69.19,324.46,72.02,324.46z"/>
	<path class="st2" d="M78.33,324.63h3.4c1.76,0,3.04,1.15,3.04,2.97c0,1.83-1.27,3.01-3.04,3.01H79.3v3.87h-0.97V324.63z
		 M81.61,329.75c1.32,0,2.17-0.8,2.17-2.14c0-1.33-0.85-2.1-2.16-2.1H79.3v4.24H81.61z"/>
	<path class="st2" d="M86.58,324.63h0.98v6.4c0,1.69,1.09,2.72,2.79,2.72c1.7,0,2.8-1.02,2.8-2.75v-6.37h0.97v6.42
		c0,2.19-1.53,3.6-3.75,3.6c-2.24,0-3.78-1.41-3.78-3.6V324.63z"/>
</g>
<g>
	<path class="st3" d="M349.5,196.76h1.87l0.96-11.73h-1.92v-1.64h4.26l3.85,9.16c0.23,0.62,0.34,1.09,0.34,1.09h0.04
		c0,0,0.11-0.47,0.34-1.09l3.85-9.16h4.26v1.64h-1.92l0.96,11.73h1.87v1.66h-5.79v-1.66h1.81l-0.68-8.99
		c-0.02-0.47,0.06-1.24,0.06-1.24h-0.06c0,0-0.17,0.72-0.34,1.15l-3.45,7.9h-1.87l-3.45-7.9c-0.17-0.43-0.34-1.15-0.34-1.15h-0.06
		c0,0,0.08,0.77,0.06,1.24l-0.68,8.99h1.81v1.66h-5.79V196.76z"/>
	<path class="st3" d="M385.26,196.76h1.88v-11.73h-1.88v-1.64h6.52c1.06,0,1.94,0.04,2.77,0.32c1.58,0.53,2.62,1.85,2.62,3.9
		c0,2.17-1.19,3.73-3.11,4.22v0.04c0,0,0.38,0.21,0.64,0.7l2.13,3.71c0.23,0.4,0.51,0.49,1.04,0.49h0.45v1.66h-1.28
		c-1.28,0-1.58-0.23-2.09-1.13l-2.32-4.11c-0.38-0.64-0.66-0.83-1.58-0.83h-1.79v4.41h1.85v1.66h-5.86V196.76z M392.28,190.61
		c1.64,0,2.73-1.07,2.73-2.83c0-1.17-0.47-1.98-1.41-2.36c-0.49-0.19-1.13-0.28-1.85-0.28h-2.49v5.47H392.28z"/>
	<polygon class="st3" points="399.67,196.76 401.55,196.76 401.55,185.03 399.67,185.03 399.67,183.39 410.56,183.39 410.56,186.88 
		408.7,186.88 408.7,185.14 403.68,185.14 403.68,189.97 409,189.97 409,191.72 403.68,191.72 403.68,196.68 409.06,196.68 
		409.06,194.87 410.92,194.87 410.92,198.42 399.67,198.42 	"/>
	<polygon class="st3" points="412.71,196.76 414.58,196.76 414.58,185.03 412.71,185.03 412.71,183.39 418.61,183.39 418.61,185.03 
		416.71,185.03 416.71,190.03 424.5,190.03 424.5,185.03 422.61,185.03 422.61,183.39 428.51,183.39 428.51,185.03 426.63,185.03 
		426.63,196.76 428.51,196.76 428.51,198.42 422.61,198.42 422.61,196.76 424.5,196.76 424.5,191.78 416.71,191.78 416.71,196.76 
		418.61,196.76 418.61,198.42 412.71,198.42 	"/>
	<rect x="376.9" y="179" class="st4" width="2" height="2"/>
	<path class="st4" d="M378.86,184.59v-1.62h-2c-4.43,0-8.02,3.59-8.02,8.02c0,4.43,3.59,8.02,8.02,8.02h2v-1v-1h2v-1.15v-0.85h2v-2
		v-2v-2v-2h-2v-1v-1h-2V184.59z"/>
	<rect x="380.86" y="182.97" class="st4" width="2" height="2"/>
	<rect x="382.87" y="180.96" class="st4" width="2" height="2"/>
</g>
<g>
	<path class="st0" d="M124.5,343c-2.21,0-4-1.79-4-4v-20c0-2.21,1.79-4,4-4h86c2.21,0,4,1.79,4,4v20c0,2.21-1.79,4-4,4H124.5z"/>
	<path class="st5" d="M210.5,316c1.65,0,3,1.35,3,3v20c0,1.65-1.35,3-3,3h-86c-1.65,0-3-1.35-3-3v-20c0-1.65,1.35-3,3-3H210.5
		 M210.5,314h-86c-2.76,0-5,2.24-5,5v20c0,2.76,2.24,5,5,5h86c2.76,0,5-2.24,5-5v-20C215.5,316.24,213.26,314,210.5,314L210.5,314z"
		/>
</g>
<g>
	<path class="st5" d="M129.58,324.63h0.94l5.03,7.09c0.34,0.49,0.81,1.33,0.81,1.33h0.03c0,0-0.08-0.81-0.08-1.33v-7.09h0.97v9.85
		h-0.94l-5.03-7.09c-0.34-0.49-0.81-1.33-0.81-1.33h-0.03c0,0,0.08,0.81,0.08,1.33v7.09h-0.97V324.63z"/>
	<path class="st5" d="M138.86,324.63h1.04l2.73,7.48c0.18,0.5,0.38,1.27,0.38,1.27h0.03c0,0,0.2-0.77,0.38-1.27l2.73-7.48h1.04
		l-3.66,9.85h-1.01L138.86,324.63z"/>
	<path class="st5" d="M148.77,324.63h0.97v9.85h-0.97V324.63z"/>
	<path class="st5" d="M152.59,324.63h3.18c2.96,0,4.94,1.81,4.94,4.92c0,3.14-1.99,4.93-4.94,4.93h-3.18V324.63z M155.67,333.61
		c2.42,0,4.03-1.43,4.03-4.06c0-2.62-1.62-4.05-4.03-4.05h-2.12v8.11H155.67z"/>
	<path class="st5" d="M162.95,324.63h0.97v9.85h-0.97V324.63z"/>
	<path class="st5" d="M171.63,331.34h-3.96l-1.12,3.14h-1.02l3.61-9.85h1.04l3.61,9.85h-1.02L171.63,331.34z M169.64,325.65
		c0,0-0.21,0.81-0.38,1.27l-1.32,3.57h3.39l-1.29-3.57c-0.17-0.46-0.38-1.27-0.38-1.27H169.64z"/>
	<path class="st5" d="M183.46,324.46c2.28,0,3.5,1.15,3.5,1.15l-0.52,0.73c0,0-1.15-0.98-2.94-0.98c-2.38,0-3.99,1.83-3.99,4.17
		c0,2.42,1.67,4.22,3.91,4.22c1.92,0,3.1-1.44,3.1-1.44v-1.67h-1.68v-0.87h2.61v4.71h-0.9v-0.74c0-0.21,0.01-0.42,0.01-0.42h-0.03
		c0,0-1.13,1.33-3.21,1.33c-2.69,0-4.82-2.17-4.82-5.1C178.5,326.71,180.63,324.46,183.46,324.46z"/>
	<path class="st5" d="M189.77,324.63h3.4c1.76,0,3.04,1.15,3.04,2.97c0,1.83-1.27,3.01-3.04,3.01h-2.44v3.87h-0.97V324.63z
		 M193.05,329.75c1.32,0,2.17-0.8,2.17-2.14c0-1.33-0.85-2.1-2.16-2.1h-2.33v4.24H193.05z"/>
	<path class="st5" d="M198.02,324.63H199v6.4c0,1.69,1.09,2.72,2.79,2.72c1.7,0,2.8-1.02,2.8-2.75v-6.37h0.97v6.42
		c0,2.19-1.53,3.6-3.75,3.6c-2.24,0-3.78-1.41-3.78-3.6V324.63z"/>
</g>
<g>
	<path class="st0" d="M228.5,343c-2.21,0-4-1.79-4-4v-20c0-2.21,1.79-4,4-4h86c2.21,0,4,1.79,4,4v20c0,2.21-1.79,4-4,4H228.5z"/>
	<path class="st6" d="M314.5,316c1.65,0,3,1.35,3,3v20c0,1.65-1.35,3-3,3h-86c-1.65,0-3-1.35-3-3v-20c0-1.65,1.35-3,3-3H314.5
		 M314.5,314h-86c-2.76,0-5,2.24-5,5v20c0,2.76,2.24,5,5,5h86c2.76,0,5-2.24,5-5v-20C319.5,316.24,317.26,314,314.5,314L314.5,314z"
		/>
</g>
<g>
	<path class="st6" d="M242.48,324.63h0.97v9.85h-0.97V324.63z"/>
	<path class="st6" d="M246.02,327.43h0.94v1.05c0,0.31-0.03,0.56-0.03,0.56h0.03c0.25-0.64,1.15-1.78,2.82-1.78
		c1.74,0,2.35,0.99,2.35,2.73v4.48h-0.95v-4.23c0-1.11-0.17-2.09-1.53-2.09c-1.2,0-2.24,0.83-2.56,1.99
		c-0.08,0.29-0.11,0.62-0.11,0.95v3.38h-0.95V327.43z"/>
	<path class="st6" d="M254.59,328.32h-0.92v-0.8h0.94v-2.03h0.94v2.03h1.76v0.8h-1.76v3.5c0,1.65,1.05,1.86,1.58,1.86
		c0.2,0,0.32-0.03,0.32-0.03v0.85c0,0-0.15,0.03-0.41,0.03c-0.81,0-2.45-0.27-2.45-2.62V328.32z"/>
	<path class="st6" d="M262,327.27c1.95,0,2.94,1.5,2.94,3.25c0,0.17-0.03,0.49-0.03,0.49h-5.41c0.04,1.81,1.27,2.79,2.73,2.79
		c1.29,0,2.14-0.85,2.14-0.85l0.43,0.73c0,0-1.02,0.98-2.61,0.98c-2.1,0-3.68-1.51-3.68-3.68
		C258.52,328.65,260.09,327.27,262,327.27z M263.97,330.22c-0.06-1.47-0.95-2.16-2-2.16c-1.18,0-2.2,0.74-2.42,2.16H263.97z"/>
	<path class="st6" d="M266.68,324.63h0.95v7.97c0,0.92,0.42,1.06,0.78,1.06c0.13,0,0.24-0.01,0.24-0.01v0.85
		c0,0-0.17,0.03-0.35,0.03c-0.59,0-1.62-0.18-1.62-1.72V324.63z"/>
	<path class="st6" d="M278.56,324.46c2.28,0,3.5,1.15,3.5,1.15l-0.52,0.73c0,0-1.15-0.98-2.94-0.98c-2.38,0-3.99,1.83-3.99,4.17
		c0,2.42,1.67,4.22,3.91,4.22c1.92,0,3.1-1.44,3.1-1.44v-1.67h-1.68v-0.87h2.61v4.71h-0.9v-0.74c0-0.21,0.01-0.42,0.01-0.42h-0.03
		c0,0-1.13,1.33-3.21,1.33c-2.69,0-4.82-2.17-4.82-5.1C273.6,326.71,275.73,324.46,278.56,324.46z"/>
	<path class="st6" d="M284.87,324.63h3.4c1.76,0,3.04,1.15,3.04,2.97c0,1.83-1.27,3.01-3.04,3.01h-2.44v3.87h-0.97V324.63z
		 M288.15,329.75c1.32,0,2.17-0.8,2.17-2.14c0-1.33-0.85-2.1-2.16-2.1h-2.33v4.24H288.15z"/>
	<path class="st6" d="M293.12,324.63h0.98v6.4c0,1.69,1.09,2.72,2.79,2.72c1.7,0,2.8-1.02,2.8-2.75v-6.37h0.97v6.42
		c0,2.19-1.53,3.6-3.75,3.6c-2.24,0-3.78-1.41-3.78-3.6V324.63z"/>
</g>
<g>
	<path class="st0" d="M332.5,343c-2.21,0-4-1.79-4-4v-20c0-2.21,1.79-4,4-4h86c2.21,0,4,1.79,4,4v20c0,2.21-1.79,4-4,4H332.5z"/>
	<path class="st1" d="M418.5,316c1.65,0,3,1.35,3,3v20c0,1.65-1.35,3-3,3h-86c-1.65,0-3-1.35-3-3v-20c0-1.65,1.35-3,3-3H418.5
		 M418.5,314h-86c-2.76,0-5,2.24-5,5v20c0,2.76,2.24,5,5,5h86c2.76,0,5-2.24,5-5v-20C423.5,316.24,421.26,314,418.5,314L418.5,314z"
		/>
</g>
<g>
	<path class="st1" d="M362.4,324.63h0.94l5.03,7.09c0.34,0.49,0.81,1.33,0.81,1.33h0.03c0,0-0.08-0.81-0.08-1.33v-7.09h0.97v9.85
		h-0.94l-5.03-7.09c-0.34-0.49-0.81-1.33-0.81-1.33h-0.03c0,0,0.08,0.81,0.08,1.33v7.09h-0.97V324.63z"/>
	<path class="st1" d="M372.95,324.63h3.4c1.76,0,3.04,1.15,3.04,2.97c0,1.83-1.27,3.01-3.04,3.01h-2.44v3.87h-0.97V324.63z
		 M376.22,329.75c1.32,0,2.17-0.8,2.17-2.14c0-1.33-0.85-2.1-2.16-2.1h-2.33v4.24H376.22z"/>
	<path class="st1" d="M381.19,324.63h0.98v6.4c0,1.69,1.09,2.72,2.79,2.72c1.7,0,2.8-1.02,2.8-2.75v-6.37h0.97v6.42
		c0,2.19-1.53,3.6-3.75,3.6c-2.24,0-3.78-1.41-3.78-3.6V324.63z"/>
</g>
<g>
	<path class="st7" d="M433.5,376H5.5c-2.75,0-5-2.25-5-5v-62c0-2.75,2.25-5,5-5h428c2.75,0,5,2.25,5,5v62
		C438.5,373.75,436.25,376,433.5,376z"/>
</g>
<g>
	<path class="st0" d="M115.5,354.35h1.1v5.12h6.53v-5.12h1.1v11.25h-1.1v-5.14h-6.53v5.14h-1.1V354.35z"/>
	<path class="st0" d="M126.39,367.62c0,0,0.45,0.37,0.96,0.37c0.7,0,1.2-0.58,1.52-1.31l0.5-1.14l-3.36-7.99h1.2l2.37,5.87
		c0.16,0.4,0.29,0.85,0.29,0.85h0.03c0,0,0.11-0.45,0.27-0.85l2.32-5.87h1.18l-3.97,9.73c-0.42,1.02-1.25,1.68-2.32,1.68
		c-0.83,0-1.41-0.48-1.41-0.48L126.39,367.62z"/>
	<path class="st0" d="M135.16,357.55h1.04v0.78c0,0.35-0.03,0.62-0.03,0.62h0.03c0,0,0.66-1.6,2.79-1.6c2.16,0,3.51,1.73,3.51,4.23
		c0,2.54-1.52,4.21-3.6,4.21c-1.94,0-2.64-1.54-2.64-1.54h-0.03c0,0,0.03,0.29,0.03,0.7v3.84h-1.09V357.55z M138.78,364.83
		c1.42,0,2.59-1.2,2.59-3.25c0-1.97-1.04-3.23-2.54-3.23c-1.34,0-2.61,0.96-2.61,3.25C136.22,363.21,137.11,364.83,138.78,364.83z"
		/>
	<path class="st0" d="M147.99,357.36c2.23,0,3.36,1.71,3.36,3.71c0,0.19-0.03,0.56-0.03,0.56h-6.18c0.05,2.07,1.46,3.19,3.12,3.19
		c1.47,0,2.45-0.98,2.45-0.98l0.5,0.83c0,0-1.17,1.12-2.98,1.12c-2.4,0-4.21-1.73-4.21-4.21
		C144.03,358.94,145.82,357.36,147.99,357.36z M150.25,360.73c-0.06-1.68-1.09-2.46-2.29-2.46c-1.34,0-2.51,0.85-2.77,2.46H150.25z"
		/>
	<path class="st0" d="M153.43,357.55h1.07v1.42c0,0.35-0.03,0.64-0.03,0.64h0.03c0.38-1.22,1.28-2.14,2.55-2.14
		c0.22,0,0.43,0.05,0.43,0.05v1.07c0,0-0.19-0.03-0.4-0.03c-1.14,0-1.98,0.9-2.34,2.08c-0.16,0.51-0.22,1.06-0.22,1.57v3.39h-1.09
		V357.55z"/>
	<path class="st0" d="M159.06,363.84c0,0,0.9,0.98,2.4,0.98c0.86,0,1.62-0.43,1.62-1.28c0-1.76-4.34-1.33-4.34-3.95
		c0-1.44,1.3-2.22,2.75-2.22c1.7,0,2.48,0.88,2.48,0.88l-0.5,0.83c0,0-0.69-0.74-2.02-0.74c-0.82,0-1.6,0.35-1.6,1.25
		c0,1.78,4.34,1.3,4.34,3.95c0,1.31-1.14,2.26-2.75,2.26c-1.95,0-2.98-1.17-2.98-1.17L159.06,363.84z"/>
	<path class="st0" d="M169.88,357.36c1.97,0,2.95,1.15,2.95,1.15l-0.56,0.82c0,0-0.9-0.98-2.35-0.98c-1.76,0-3.14,1.31-3.14,3.23
		c0,1.89,1.39,3.23,3.17,3.23c1.63,0,2.58-1.14,2.58-1.14l0.5,0.85c0,0-1.09,1.26-3.14,1.26c-2.38,0-4.23-1.71-4.23-4.21
		C165.66,359.1,167.51,357.36,169.88,357.36z"/>
	<path class="st0" d="M179.27,360.62h0.45v-0.21c0-1.55-0.85-2.08-2-2.08c-1.33,0-2.27,0.77-2.27,0.77l-0.51-0.83
		c0,0,1.06-0.91,2.87-0.91c1.94,0,3.01,1.07,3.01,3.09v5.15h-1.04v-0.88c0-0.4,0.03-0.67,0.03-0.67h-0.03c0,0-0.67,1.75-2.69,1.75
		c-1.34,0-2.74-0.78-2.74-2.39C174.34,360.69,177.88,360.62,179.27,360.62z M177.26,364.86c1.54,0,2.47-1.6,2.47-2.99v-0.35h-0.46
		c-1.26,0-3.79,0.05-3.79,1.83C175.47,364.09,176.06,364.86,177.26,364.86z"/>
	<path class="st0" d="M183.24,354.35h1.09v9.11c0,1.06,0.48,1.22,0.9,1.22c0.14,0,0.27-0.02,0.27-0.02v0.98c0,0-0.19,0.03-0.4,0.03
		c-0.67,0-1.86-0.21-1.86-1.97V354.35z"/>
	<path class="st0" d="M190.68,357.36c2.23,0,3.36,1.71,3.36,3.71c0,0.19-0.03,0.56-0.03,0.56h-6.18c0.05,2.07,1.46,3.19,3.12,3.19
		c1.47,0,2.45-0.98,2.45-0.98l0.5,0.83c0,0-1.17,1.12-2.98,1.12c-2.4,0-4.21-1.73-4.21-4.21
		C186.71,358.94,188.5,357.36,190.68,357.36z M192.94,360.73c-0.06-1.68-1.09-2.46-2.29-2.46c-1.34,0-2.51,0.85-2.77,2.46H192.94z"
		/>
	<path class="st0" d="M206.3,362.01h-4.53l-1.28,3.58h-1.17l4.13-11.25h1.18l4.13,11.25h-1.17L206.3,362.01z M204.03,355.52
		c0,0-0.24,0.93-0.43,1.46l-1.5,4.08h3.87l-1.47-4.08c-0.19-0.53-0.43-1.46-0.43-1.46H204.03z"/>
	<path class="st0" d="M210.6,354.35h1.1v11.25h-1.1V354.35z"/>
	<path class="st0" d="M219.27,354.35h1.1v11.25h-1.1V354.35z"/>
	<path class="st0" d="M223.32,357.55h1.07v1.2c0,0.35-0.03,0.64-0.03,0.64h0.03c0.29-0.74,1.31-2.03,3.22-2.03
		c1.98,0,2.69,1.14,2.69,3.12v5.12h-1.09v-4.83c0-1.26-0.19-2.38-1.75-2.38c-1.38,0-2.56,0.94-2.93,2.27
		c-0.1,0.34-0.13,0.7-0.13,1.09v3.86h-1.09V357.55z"/>
	<path class="st0" d="M233.13,358.56h-1.01v-0.91h1.01v-0.38c0-2.66,1.87-2.99,2.79-2.99c0.3,0,0.5,0.03,0.5,0.03v0.98
		c0,0-0.16-0.03-0.38-0.03c-0.62,0-1.81,0.22-1.81,2.02v0.38h2.06v0.91h-2.06v7.04h-1.09V358.56z"/>
	<path class="st0" d="M237.88,357.55h1.07v1.42c0,0.35-0.03,0.64-0.03,0.64h0.03c0.38-1.22,1.28-2.14,2.55-2.14
		c0.22,0,0.43,0.05,0.43,0.05v1.07c0,0-0.19-0.03-0.4-0.03c-1.14,0-1.98,0.9-2.34,2.08c-0.16,0.51-0.22,1.06-0.22,1.57v3.39h-1.09
		V357.55z"/>
	<path class="st0" d="M247.85,360.62h0.45v-0.21c0-1.55-0.85-2.08-2-2.08c-1.33,0-2.27,0.77-2.27,0.77l-0.51-0.83
		c0,0,1.06-0.91,2.87-0.91c1.94,0,3.01,1.07,3.01,3.09v5.15h-1.04v-0.88c0-0.4,0.03-0.67,0.03-0.67h-0.03c0,0-0.67,1.75-2.69,1.75
		c-1.34,0-2.74-0.78-2.74-2.39C242.92,360.69,246.46,360.62,247.85,360.62z M245.83,364.86c1.54,0,2.47-1.6,2.47-2.99v-0.35h-0.46
		c-1.26,0-3.79,0.05-3.79,1.83C244.04,364.09,244.63,364.86,245.83,364.86z"/>
	<path class="st0" d="M251.83,363.84c0,0,0.9,0.98,2.4,0.98c0.86,0,1.62-0.43,1.62-1.28c0-1.76-4.34-1.33-4.34-3.95
		c0-1.44,1.3-2.22,2.75-2.22c1.7,0,2.48,0.88,2.48,0.88l-0.5,0.83c0,0-0.69-0.74-2.02-0.74c-0.82,0-1.6,0.35-1.6,1.25
		c0,1.78,4.34,1.3,4.34,3.95c0,1.31-1.14,2.26-2.75,2.26c-1.95,0-2.98-1.17-2.98-1.17L251.83,363.84z"/>
	<path class="st0" d="M259.29,358.56h-1.06v-0.91h1.07v-2.32h1.07v2.32h2.02v0.91h-2.02v4c0,1.89,1.2,2.13,1.81,2.13
		c0.22,0,0.37-0.03,0.37-0.03v0.98c0,0-0.18,0.03-0.46,0.03c-0.93,0-2.8-0.3-2.8-2.99V358.56z"/>
	<path class="st0" d="M264.34,357.55h1.07v1.42c0,0.35-0.03,0.64-0.03,0.64h0.03c0.38-1.22,1.28-2.14,2.55-2.14
		c0.22,0,0.43,0.05,0.43,0.05v1.07c0,0-0.19-0.03-0.4-0.03c-1.14,0-1.98,0.9-2.34,2.08c-0.16,0.51-0.22,1.06-0.22,1.57v3.39h-1.09
		V357.55z"/>
	<path class="st0" d="M269.93,357.55h1.09v4.83c0,1.26,0.19,2.39,1.74,2.39c1.84,0,2.98-1.62,2.98-3.36v-3.86h1.09v8.05h-1.06v-1.2
		c0-0.35,0.03-0.64,0.03-0.64h-0.03c-0.32,0.78-1.38,2.03-3.15,2.03c-1.89,0-2.69-1.02-2.69-3.12V357.55z"/>
	<path class="st0" d="M283.11,357.36c1.97,0,2.95,1.15,2.95,1.15l-0.56,0.82c0,0-0.9-0.98-2.35-0.98c-1.76,0-3.14,1.31-3.14,3.23
		c0,1.89,1.39,3.23,3.17,3.23c1.63,0,2.58-1.14,2.58-1.14l0.5,0.85c0,0-1.09,1.26-3.14,1.26c-2.38,0-4.23-1.71-4.23-4.21
		C278.89,359.1,280.74,357.36,283.11,357.36z"/>
	<path class="st0" d="M288.54,358.56h-1.06v-0.91h1.07v-2.32h1.07v2.32h2.02v0.91h-2.02v4c0,1.89,1.2,2.13,1.81,2.13
		c0.22,0,0.37-0.03,0.37-0.03v0.98c0,0-0.18,0.03-0.46,0.03c-0.93,0-2.8-0.3-2.8-2.99V358.56z"/>
	<path class="st0" d="M293.48,357.55h1.09v4.83c0,1.26,0.19,2.39,1.74,2.39c1.84,0,2.98-1.62,2.98-3.36v-3.86h1.09v8.05h-1.06v-1.2
		c0-0.35,0.03-0.64,0.03-0.64h-0.03c-0.32,0.78-1.38,2.03-3.15,2.03c-1.89,0-2.69-1.02-2.69-3.12V357.55z"/>
	<path class="st0" d="M303,357.55h1.07v1.42c0,0.35-0.03,0.64-0.03,0.64h0.03c0.38-1.22,1.28-2.14,2.55-2.14
		c0.22,0,0.43,0.05,0.43,0.05v1.07c0,0-0.19-0.03-0.4-0.03c-1.14,0-1.98,0.9-2.34,2.08c-0.16,0.51-0.22,1.06-0.22,1.57v3.39H303
		V357.55z"/>
	<path class="st0" d="M312.01,357.36c2.23,0,3.36,1.71,3.36,3.71c0,0.19-0.03,0.56-0.03,0.56h-6.18c0.05,2.07,1.46,3.19,3.12,3.19
		c1.47,0,2.45-0.98,2.45-0.98l0.5,0.83c0,0-1.17,1.12-2.98,1.12c-2.4,0-4.21-1.73-4.21-4.21
		C308.04,358.94,309.83,357.36,312.01,357.36z M314.27,360.73c-0.06-1.68-1.09-2.46-2.29-2.46c-1.34,0-2.51,0.85-2.77,2.46H314.27z"
		/>
</g>
<g>
	<path class="st8" d="M146.12,215.51h-3.39l-0.96,2.69h-0.88l3.09-8.43h0.89l3.09,8.43h-0.88L146.12,215.51z M144.42,210.64
		c0,0-0.18,0.7-0.32,1.09l-1.13,3.06h2.9l-1.1-3.06c-0.14-0.4-0.32-1.09-0.32-1.09H144.42z"/>
	<path class="st8" d="M149.03,212.17h0.82v3.62c0,0.95,0.14,1.79,1.31,1.79c1.38,0,2.23-1.21,2.23-2.52v-2.89h0.82v6.03h-0.79v-0.9
		c0-0.26,0.02-0.48,0.02-0.48h-0.02c-0.24,0.59-1.03,1.52-2.36,1.52c-1.42,0-2.01-0.77-2.01-2.34V212.17z"/>
	<path class="st8" d="M156.39,212.92h-0.79v-0.68h0.8v-1.74h0.8v1.74h1.51v0.68h-1.51v3c0,1.42,0.9,1.6,1.36,1.6
		c0.17,0,0.28-0.02,0.28-0.02v0.73c0,0-0.13,0.02-0.35,0.02c-0.7,0-2.1-0.23-2.1-2.24V212.92z"/>
	<path class="st8" d="M162.93,212.02c1.76,0,3.19,1.34,3.19,3.13c0,1.82-1.43,3.19-3.19,3.19c-1.76,0-3.19-1.37-3.19-3.19
		C159.74,213.37,161.17,212.02,162.93,212.02z M162.93,217.61c1.3,0,2.35-1.06,2.35-2.46c0-1.37-1.06-2.39-2.35-2.39
		c-1.29,0-2.35,1.02-2.35,2.39C160.58,216.56,161.64,217.61,162.93,217.61z"/>
	<path class="st8" d="M167.91,214.42h3.41v0.74h-3.41V214.42z"/>
	<path class="st8" d="M173.55,212.17h0.78v0.59c0,0.26-0.02,0.47-0.02,0.47h0.02c0,0,0.49-1.2,2.09-1.2c1.62,0,2.63,1.3,2.63,3.17
		c0,1.91-1.14,3.15-2.7,3.15c-1.45,0-1.98-1.15-1.98-1.15h-0.02c0,0,0.02,0.22,0.02,0.53v2.88h-0.82V212.17z M176.26,217.62
		c1.07,0,1.94-0.9,1.94-2.43c0-1.48-0.78-2.42-1.91-2.42c-1.01,0-1.95,0.72-1.95,2.43C174.34,216.41,175.02,217.62,176.26,217.62z"
		/>
	<path class="st8" d="M183.82,214.47h0.34v-0.16c0-1.16-0.64-1.56-1.5-1.56c-1,0-1.7,0.58-1.7,0.58l-0.38-0.62
		c0,0,0.79-0.68,2.15-0.68c1.45,0,2.25,0.8,2.25,2.31v3.86h-0.78v-0.66c0-0.3,0.02-0.5,0.02-0.5h-0.02c0,0-0.5,1.31-2.01,1.31
		c-1.01,0-2.05-0.59-2.05-1.79C180.13,214.52,182.78,214.47,183.82,214.47z M182.31,217.65c1.15,0,1.85-1.2,1.85-2.24v-0.26h-0.35
		c-0.95,0-2.84,0.04-2.84,1.37C180.97,217.07,181.41,217.65,182.31,217.65z"/>
	<path class="st8" d="M186.86,212.17h0.8v1.07c0,0.26-0.02,0.48-0.02,0.48h0.02c0.29-0.91,0.96-1.61,1.91-1.61
		c0.17,0,0.32,0.04,0.32,0.04v0.8c0,0-0.14-0.02-0.3-0.02c-0.85,0-1.49,0.67-1.75,1.56c-0.12,0.38-0.17,0.79-0.17,1.18v2.54h-0.82
		V212.17z"/>
	<path class="st8" d="M194.33,214.47h0.34v-0.16c0-1.16-0.64-1.56-1.5-1.56c-1,0-1.7,0.58-1.7,0.58l-0.38-0.62
		c0,0,0.79-0.68,2.15-0.68c1.45,0,2.25,0.8,2.25,2.31v3.86h-0.78v-0.66c0-0.3,0.02-0.5,0.02-0.5h-0.02c0,0-0.5,1.31-2.01,1.31
		c-1.01,0-2.05-0.59-2.05-1.79C190.64,214.52,193.29,214.47,194.33,214.47z M192.82,217.65c1.15,0,1.85-1.2,1.85-2.24v-0.26h-0.35
		c-0.95,0-2.84,0.04-2.84,1.37C191.48,217.07,191.92,217.65,192.82,217.65z"/>
	<path class="st8" d="M197.31,209.77h0.82v6.82c0,0.79,0.36,0.91,0.67,0.91c0.11,0,0.2-0.01,0.2-0.01v0.73c0,0-0.14,0.02-0.3,0.02
		c-0.5,0-1.39-0.16-1.39-1.48V209.77z"/>
	<path class="st8" d="M200.28,209.77h0.82v6.82c0,0.79,0.36,0.91,0.67,0.91c0.11,0,0.2-0.01,0.2-0.01v0.73c0,0-0.14,0.02-0.3,0.02
		c-0.5,0-1.39-0.16-1.39-1.48V209.77z"/>
	<path class="st8" d="M205.85,212.02c1.67,0,2.52,1.28,2.52,2.78c0,0.14-0.02,0.42-0.02,0.42h-4.63c0.04,1.55,1.09,2.39,2.34,2.39
		c1.1,0,1.83-0.73,1.83-0.73l0.37,0.62c0,0-0.88,0.84-2.23,0.84c-1.8,0-3.15-1.3-3.15-3.15
		C202.88,213.21,204.22,212.02,205.85,212.02z M207.55,214.55c-0.05-1.26-0.82-1.85-1.72-1.85c-1.01,0-1.88,0.64-2.07,1.85H207.55z"
		/>
	<path class="st8" d="M209.88,209.77h0.82v6.82c0,0.79,0.36,0.91,0.67,0.91c0.11,0,0.2-0.01,0.2-0.01v0.73c0,0-0.14,0.02-0.3,0.02
		c-0.5,0-1.39-0.16-1.39-1.48V209.77z"/>
	<path class="st8" d="M212.88,209.77h0.85v1.02h-0.85V209.77z M212.9,212.17h0.82v6.03h-0.82V212.17z"/>
	<path class="st8" d="M215.2,217.67l3.37-4.23c0.23-0.29,0.48-0.55,0.48-0.55v-0.02c0,0-0.2,0.02-0.6,0.02h-3.11v-0.72h4.81v0.54
		l-3.37,4.22c-0.23,0.29-0.49,0.55-0.49,0.55v0.02c0,0,0.22-0.02,0.61-0.02h3.37v0.72h-5.07V217.67z"/>
	<path class="st8" d="M224.29,212.02c1.67,0,2.52,1.28,2.52,2.78c0,0.14-0.02,0.42-0.02,0.42h-4.63c0.04,1.55,1.09,2.39,2.34,2.39
		c1.1,0,1.83-0.73,1.83-0.73l0.37,0.62c0,0-0.88,0.84-2.23,0.84c-1.8,0-3.15-1.3-3.15-3.15
		C221.31,213.21,222.66,212.02,224.29,212.02z M225.98,214.55c-0.05-1.26-0.82-1.85-1.72-1.85c-1.01,0-1.88,0.64-2.07,1.85H225.98z"
		/>
	<path class="st8" d="M228.37,212.17h0.8v1.07c0,0.26-0.02,0.48-0.02,0.48h0.02c0.29-0.91,0.96-1.61,1.91-1.61
		c0.17,0,0.32,0.04,0.32,0.04v0.8c0,0-0.14-0.02-0.3-0.02c-0.85,0-1.49,0.67-1.75,1.56c-0.12,0.38-0.17,0.79-0.17,1.18v2.54h-0.82
		V212.17z"/>
	<path class="st8" d="M237.14,213.65v-0.02c0,0-1.18-0.37-1.18-1.87c0-1.3,1-2.13,2.53-2.13c0.41,0,0.96,0.12,0.96,0.12l-0.24,0.7
		c0,0-0.4-0.08-0.7-0.08c-0.95,0-1.69,0.54-1.69,1.45c0,0.56,0.24,1.52,1.81,1.52h1.78v-1.19h0.83v1.19h1.14v0.74h-1.14v1.24
		c0,2.02-1.1,3.03-2.79,3.03c-1.69,0-2.84-1.07-2.84-2.47C235.6,214.9,236.16,213.95,237.14,213.65z M238.45,217.56
		c1.19,0,1.97-0.66,1.97-2.28v-1.21h-1.78c-1.46,0-2.18,0.7-2.18,1.75C236.46,216.78,237.2,217.56,238.45,217.56z"/>
	<path class="st8" d="M249.93,212.02c1.76,0,3.19,1.34,3.19,3.13c0,1.82-1.43,3.19-3.19,3.19c-1.76,0-3.19-1.37-3.19-3.19
		C246.74,213.37,248.17,212.02,249.93,212.02z M249.93,217.61c1.3,0,2.35-1.06,2.35-2.46c0-1.37-1.06-2.39-2.35-2.39
		c-1.29,0-2.35,1.02-2.35,2.39C247.58,216.56,248.63,217.61,249.93,217.61z"/>
	<path class="st8" d="M254.65,212.17h0.78v0.59c0,0.26-0.02,0.47-0.02,0.47h0.02c0,0,0.49-1.2,2.09-1.2c1.62,0,2.63,1.3,2.63,3.17
		c0,1.91-1.14,3.15-2.7,3.15c-1.45,0-1.98-1.15-1.98-1.15h-0.02c0,0,0.02,0.22,0.02,0.53v2.88h-0.82V212.17z M257.36,217.62
		c1.07,0,1.94-0.9,1.94-2.43c0-1.48-0.78-2.42-1.91-2.42c-1.01,0-1.95,0.72-1.95,2.43C255.44,216.41,256.11,217.62,257.36,217.62z"
		/>
	<path class="st8" d="M261.94,212.92h-0.79v-0.68h0.8v-1.74h0.8v1.74h1.51v0.68h-1.51v3c0,1.42,0.9,1.6,1.35,1.6
		c0.17,0,0.28-0.02,0.28-0.02v0.73c0,0-0.13,0.02-0.35,0.02c-0.7,0-2.1-0.23-2.1-2.24V212.92z"/>
	<path class="st8" d="M265.71,209.77h0.85v1.02h-0.85V209.77z M265.74,212.17h0.82v6.03h-0.82V212.17z"/>
	<path class="st8" d="M268.52,212.17h0.8v0.9c0,0.26-0.02,0.48-0.02,0.48h0.02c0.29-0.82,1.25-1.52,2.18-1.52
		c1.12,0,1.69,0.52,1.87,1.51h0.02c0.32-0.82,1.2-1.51,2.22-1.51c1.46,0,2,0.85,2,2.34v3.84h-0.82v-3.63c0-0.98-0.2-1.8-1.31-1.8
		c-0.92,0-1.68,0.82-1.91,1.7c-0.08,0.26-0.11,0.55-0.11,0.88v2.85h-0.82v-3.63c0-0.91-0.13-1.8-1.27-1.8
		c-0.98,0-1.73,0.85-1.98,1.77c-0.06,0.25-0.08,0.53-0.08,0.8v2.85h-0.82V212.17z"/>
	<path class="st8" d="M279.49,209.77h0.85v1.02h-0.85V209.77z M279.51,212.17h0.82v6.03h-0.82V212.17z"/>
	<path class="st8" d="M281.82,217.67l3.37-4.23c0.23-0.29,0.48-0.55,0.48-0.55v-0.02c0,0-0.2,0.02-0.6,0.02h-3.11v-0.72h4.81v0.54
		l-3.37,4.22c-0.23,0.29-0.49,0.55-0.49,0.55v0.02c0,0,0.22-0.02,0.61-0.02h3.37v0.72h-5.07V217.67z"/>
	<path class="st8" d="M290.9,212.02c1.67,0,2.52,1.28,2.52,2.78c0,0.14-0.02,0.42-0.02,0.42h-4.63c0.04,1.55,1.09,2.39,2.34,2.39
		c1.1,0,1.83-0.73,1.83-0.73l0.37,0.62c0,0-0.88,0.84-2.23,0.84c-1.8,0-3.15-1.3-3.15-3.15
		C287.92,213.21,289.27,212.02,290.9,212.02z M292.59,214.55c-0.05-1.26-0.82-1.85-1.72-1.85c-1.01,0-1.88,0.64-2.07,1.85H292.59z"
		/>
	<path class="st8" d="M294.98,212.17h0.8v1.07c0,0.26-0.02,0.48-0.02,0.48h0.02c0.29-0.91,0.96-1.61,1.91-1.61
		c0.17,0,0.32,0.04,0.32,0.04v0.8c0,0-0.14-0.02-0.3-0.02c-0.85,0-1.49,0.67-1.75,1.56c-0.12,0.38-0.17,0.79-0.17,1.18v2.54h-0.82
		V212.17z"/>
</g>
<g>
	<path class="st9" d="M324.5,110h-210c-2.75,0-5-2.25-5-5V83c0-2.75,2.25-5,5-5h210c2.75,0,5,2.25,5,5v22
		C329.5,107.75,327.25,110,324.5,110z"/>
</g>
<g>
	<path class="st0" d="M134,97.21c0,0,1.23,1.2,2.83,1.2c0.86,0,1.65-0.45,1.65-1.38c0-2.03-5.36-1.68-5.36-5.17
		c0-1.89,1.63-3.3,3.81-3.3c2.24,0,3.39,1.22,3.39,1.22l-0.9,1.68c0,0-1.09-0.99-2.51-0.99c-0.96,0-1.71,0.56-1.71,1.36
		c0,2.02,5.35,1.52,5.35,5.15c0,1.81-1.38,3.33-3.75,3.33c-2.53,0-3.92-1.55-3.92-1.55L134,97.21z"/>
	<path class="st0" d="M142.29,88.76h2.02v1.81h-2.02V88.76z M142.29,91.96h2.03v8.16h-2.03V91.96z"/>
	<path class="st0" d="M146.56,91.96h1.95v0.94c0,0.3-0.03,0.56-0.03,0.56h0.03c0.35-0.69,1.25-1.7,2.9-1.7
		c1.81,0,2.83,0.94,2.83,3.11v5.25h-2.02v-4.83c0-0.99-0.26-1.67-1.3-1.67c-1.09,0-1.89,0.69-2.19,1.67
		c-0.11,0.34-0.14,0.7-0.14,1.09v3.75h-2.03V91.96z"/>
	<path class="st0" d="M159.45,101.75c1.25,0,2.31-0.53,2.31-1.99v-0.48c0-0.19,0.03-0.43,0.03-0.43h-0.03
		c-0.48,0.72-1.18,1.1-2.27,1.1c-2.34,0-3.67-1.89-3.67-4.13c0-2.24,1.26-4.07,3.62-4.07c1.78,0,2.42,1.04,2.42,1.04h0.05
		c0,0-0.02-0.1-0.02-0.22v-0.62h1.9v7.67c0,2.8-2.18,3.86-4.31,3.86c-1.02,0-2.11-0.29-2.9-0.7l0.61-1.55
		C157.2,101.22,158.22,101.75,159.45,101.75z M161.81,95.85c0-1.86-0.91-2.35-2.02-2.35c-1.23,0-1.92,0.9-1.92,2.27
		c0,1.42,0.74,2.48,2.05,2.48C160.89,98.25,161.81,97.69,161.81,95.85z"/>
	<path class="st0" d="M165.92,88.76h2.02v8.51c0,0.9,0.3,1.12,0.83,1.12c0.16,0,0.3-0.02,0.3-0.02v1.78c0,0-0.3,0.05-0.64,0.05
		c-1.12,0-2.51-0.29-2.51-2.62V88.76z"/>
	<path class="st0" d="M174.14,91.76c2.35,0,3.62,1.71,3.62,3.87c0,0.24-0.05,0.78-0.05,0.78h-5.63c0.13,1.42,1.23,2.16,2.45,2.16
		c1.31,0,2.35-0.9,2.35-0.9l0.78,1.46c0,0-1.25,1.17-3.28,1.17c-2.71,0-4.39-1.95-4.39-4.27C170,93.52,171.71,91.76,174.14,91.76z
		 M175.71,95.03c-0.03-1.1-0.72-1.7-1.62-1.7c-1.04,0-1.76,0.64-1.95,1.7H175.71z"/>
	<path class="st0" d="M188.73,88.56c2.79,0,4.23,1.44,4.23,1.44l-1.02,1.54c0,0-1.22-1.09-3.03-1.09c-2.54,0-3.91,1.76-3.91,3.91
		c0,2.47,1.68,4.07,3.81,4.07c1.71,0,2.85-1.18,2.85-1.18v-1.33h-1.74v-1.78h3.6v5.99h-1.76v-0.54c0-0.24,0.02-0.48,0.02-0.48h-0.03
		c0,0-1.18,1.22-3.3,1.22c-2.99,0-5.57-2.32-5.57-5.89C182.88,91.12,185.36,88.56,188.73,88.56z"/>
	<path class="st0" d="M195.8,88.76h4.39c2.13,0,3.62,1.49,3.62,3.7s-1.49,3.75-3.62,3.75h-2.32v3.92h-2.06V88.76z M199.81,94.41
		c1.2,0,1.9-0.77,1.9-1.95c0-1.17-0.7-1.92-1.87-1.92h-1.97v3.87H199.81z"/>
	<path class="st0" d="M205.47,88.76h2.06v7.28c0,1.52,0.99,2.39,2.51,2.39s2.53-0.87,2.53-2.4v-7.27h2.06v7.28
		c0,2.55-1.84,4.27-4.58,4.27c-2.75,0-4.59-1.73-4.59-4.27V88.76z"/>
	<path class="st0" d="M226.89,97.21h-3.99l-0.96,2.91h-2.13l4-11.36h2.16l4,11.36h-2.13L226.89,97.21z M224.89,90.72
		c0,0-0.26,1.12-0.48,1.76l-1.01,3.04h2.98l-1.01-3.04c-0.21-0.64-0.45-1.76-0.45-1.76H224.89z"/>
	<path class="st0" d="M231.12,88.76h2.03v3.5c0,0.4-0.03,0.69-0.03,0.69h0.03c0,0,0.72-1.18,2.45-1.18c2.21,0,3.62,1.75,3.62,4.27
		c0,2.59-1.58,4.27-3.75,4.27c-1.7,0-2.43-1.22-2.43-1.22H233c0,0,0.03,0.24,0.03,0.56v0.46h-1.92V88.76z M235.12,98.6
		c1.12,0,2.05-0.91,2.05-2.53c0-1.55-0.83-2.56-2.03-2.56c-1.06,0-2.05,0.77-2.05,2.58C233.08,97.35,233.76,98.6,235.12,98.6z"/>
	<path class="st0" d="M241.13,97.69c0,0,0.9,0.9,2.23,0.9c0.58,0,1.07-0.26,1.07-0.74c0-1.22-3.97-1.06-3.97-3.68
		c0-1.52,1.36-2.4,3.12-2.4c1.84,0,2.74,0.93,2.74,0.93l-0.75,1.5c0,0-0.75-0.7-2-0.7c-0.53,0-1.04,0.22-1.04,0.74
		c0,1.15,3.97,1.01,3.97,3.63c0,1.36-1.18,2.45-3.12,2.45c-2.03,0-3.17-1.2-3.17-1.2L241.13,97.69z"/>
	<path class="st0" d="M248.48,93.7h-1.06v-1.62h1.1v-2.35h1.98v2.35h1.86v1.62h-1.86v3.17c0,1.34,1.06,1.54,1.62,1.54
		c0.22,0,0.37-0.03,0.37-0.03v1.78c0,0-0.24,0.05-0.62,0.05c-1.14,0-3.39-0.34-3.39-3.07V93.7z"/>
	<path class="st0" d="M254.16,91.96h1.95v1.41c0,0.3-0.03,0.58-0.03,0.58h0.03c0.37-1.17,1.34-2.1,2.59-2.1
		c0.19,0,0.37,0.03,0.37,0.03v2c0,0-0.21-0.03-0.48-0.03c-0.86,0-1.84,0.5-2.23,1.71c-0.13,0.4-0.18,0.85-0.18,1.33v3.23h-2.03
		V91.96z"/>
	<path class="st0" d="M264.59,95h0.27v-0.11c0-1.07-0.67-1.44-1.57-1.44c-1.17,0-2.24,0.78-2.24,0.78l-0.77-1.46
		c0,0,1.26-1.01,3.2-1.01c2.15,0,3.39,1.18,3.39,3.25v5.11h-1.87v-0.67c0-0.32,0.03-0.58,0.03-0.58h-0.03
		c0.02,0-0.62,1.44-2.48,1.44c-1.46,0-2.77-0.91-2.77-2.54C259.76,95.17,263.26,95,264.59,95z M263.04,98.73
		c1.07,0,1.84-1.15,1.84-2.14v-0.19h-0.35c-1.04,0-2.72,0.14-2.72,1.28C261.8,98.22,262.2,98.73,263.04,98.73z"/>
	<path class="st0" d="M272.83,91.76c2.13,0,3.14,1.22,3.14,1.22l-0.9,1.39c0,0-0.85-0.88-2.13-0.88c-1.5,0-2.48,1.14-2.48,2.53
		c0,1.38,0.99,2.56,2.54,2.56c1.38,0,2.4-1.04,2.4-1.04l0.78,1.44c0,0-1.17,1.33-3.36,1.33c-2.71,0-4.43-1.91-4.43-4.27
		C268.4,93.72,270.12,91.76,272.83,91.76z"/>
	<path class="st0" d="M278.06,93.7H277v-1.62h1.1v-2.35h1.98v2.35h1.86v1.62h-1.86v3.17c0,1.34,1.06,1.54,1.62,1.54
		c0.22,0,0.37-0.03,0.37-0.03v1.78c0,0-0.24,0.05-0.62,0.05c-1.14,0-3.39-0.34-3.39-3.07V93.7z"/>
	<path class="st0" d="M283.74,88.76h2.02v1.81h-2.02V88.76z M283.74,91.96h2.03v8.16h-2.03V91.96z"/>
	<path class="st0" d="M291.88,91.76c2.5,0,4.5,1.78,4.5,4.27c0,2.51-2,4.27-4.48,4.27c-2.5,0-4.5-1.76-4.5-4.27
		C287.4,93.54,289.4,91.76,291.88,91.76z M291.9,98.58c1.31,0,2.42-1.03,2.42-2.55c0-1.5-1.1-2.54-2.42-2.54
		c-1.33,0-2.43,1.04-2.43,2.54C289.47,97.56,290.57,98.58,291.9,98.58z"/>
	<path class="st0" d="M298.01,91.96h1.95v0.94c0,0.3-0.03,0.56-0.03,0.56h0.03c0.35-0.69,1.25-1.7,2.9-1.7
		c1.81,0,2.83,0.94,2.83,3.11v5.25h-2.02v-4.83c0-0.99-0.26-1.67-1.3-1.67c-1.09,0-1.89,0.69-2.19,1.67
		c-0.11,0.34-0.14,0.7-0.14,1.09v3.75h-2.03V91.96z"/>
</g>
<path class="st10" d="M63.5,312v-15c0-2.76,2.24-5,5-5h302c2.76,0,5,2.24,5,5v15"/>
<line class="st10" x1="167.5" y1="292" x2="167.5" y2="312"/>
<line class="st10" x1="271.5" y1="292" x2="271.5" y2="312"/>
<line class="st10" x1="219.5" y1="267" x2="219.5" y2="292"/>
<line class="st10" x1="219.5" y1="114" x2="219.5" y2="139"/>
<rect x="129.5" y="34" class="st11" width="180" height="30"/>
<g>
	<path class="st0" d="M156.12,44.63h3.4c1.76,0,3.04,1.15,3.04,2.97c0,1.83-1.27,3.01-3.04,3.01h-2.44v3.87h-0.97V44.63z
		 M159.4,49.75c1.32,0,2.17-0.8,2.17-2.14c0-1.33-0.85-2.1-2.16-2.1h-2.33v4.24H159.4z"/>
	<path class="st0" d="M163.53,56.25c0,0,0.39,0.32,0.84,0.32c0.62,0,1.05-0.5,1.33-1.15l0.43-0.99l-2.94-6.99h1.05l2.07,5.14
		c0.14,0.35,0.25,0.74,0.25,0.74h0.03c0,0,0.1-0.39,0.24-0.74l2.03-5.14h1.04l-3.47,8.52c-0.36,0.9-1.09,1.47-2.03,1.47
		c-0.73,0-1.23-0.42-1.23-0.42L163.53,56.25z"/>
	<path class="st0" d="M172.55,45.5H169v-0.87h8.04v0.87h-3.53v8.98h-0.97V45.5z"/>
	<path class="st0" d="M180.16,47.27c2.06,0,3.73,1.57,3.73,3.66c0,2.13-1.67,3.73-3.73,3.73c-2.06,0-3.73-1.6-3.73-3.73
		C176.44,48.83,178.1,47.27,180.16,47.27z M180.16,53.79c1.51,0,2.75-1.23,2.75-2.87c0-1.6-1.23-2.79-2.75-2.79
		s-2.75,1.19-2.75,2.79C177.42,52.56,178.65,53.79,180.16,53.79z"/>
	<path class="st0" d="M185.66,47.43h0.94v1.25c0,0.31-0.03,0.56-0.03,0.56h0.03c0.34-1.06,1.12-1.88,2.23-1.88
		c0.2,0,0.38,0.04,0.38,0.04v0.94c0,0-0.17-0.03-0.35-0.03c-1,0-1.74,0.78-2.05,1.82c-0.14,0.45-0.2,0.92-0.2,1.37v2.97h-0.95V47.43
		z"/>
	<path class="st0" d="M193.77,47.27c1.72,0,2.58,1.01,2.58,1.01l-0.49,0.71c0,0-0.78-0.85-2.06-0.85c-1.54,0-2.75,1.15-2.75,2.83
		c0,1.65,1.22,2.83,2.77,2.83c1.43,0,2.26-0.99,2.26-0.99l0.43,0.74c0,0-0.95,1.11-2.75,1.11c-2.09,0-3.7-1.5-3.7-3.68
		C190.07,48.79,191.7,47.27,193.77,47.27z"/>
	<path class="st0" d="M198.25,44.63h0.95v3.81c0,0.32-0.03,0.57-0.03,0.57h0.03c0.27-0.67,1.2-1.75,2.8-1.75
		c1.74,0,2.35,0.99,2.35,2.73v4.48h-0.95v-4.23c0-1.11-0.17-2.09-1.53-2.09c-1.2,0-2.24,0.83-2.56,2c-0.08,0.28-0.11,0.6-0.11,0.94
		v3.38h-0.95V44.63z"/>
	<path class="st0" d="M209.53,44.09h0.88l-3.54,10.98h-0.9L209.53,44.09z"/>
	<path class="st0" d="M214.53,45.5h-3.54v-0.87h8.04v0.87h-3.53v8.98h-0.97V45.5z"/>
	<path class="st0" d="M221.92,47.27c1.95,0,2.94,1.5,2.94,3.25c0,0.17-0.03,0.49-0.03,0.49h-5.41c0.04,1.81,1.27,2.79,2.73,2.79
		c1.29,0,2.14-0.85,2.14-0.85l0.43,0.73c0,0-1.02,0.98-2.61,0.98c-2.1,0-3.68-1.51-3.68-3.68
		C218.45,48.65,220.02,47.27,221.92,47.27z M223.9,50.22c-0.06-1.47-0.95-2.16-2-2.16c-1.18,0-2.2,0.74-2.42,2.16H223.9z"/>
	<path class="st0" d="M226.68,47.43h0.94v1.05c0,0.31-0.03,0.56-0.03,0.56h0.03c0.25-0.64,1.15-1.78,2.82-1.78
		c1.74,0,2.35,0.99,2.35,2.73v4.48h-0.95v-4.23c0-1.11-0.17-2.09-1.53-2.09c-1.2,0-2.24,0.83-2.56,1.99
		c-0.08,0.29-0.11,0.62-0.11,0.95v3.38h-0.95V47.43z"/>
	<path class="st0" d="M234.93,52.94c0,0,0.78,0.85,2.1,0.85c0.76,0,1.42-0.38,1.42-1.12c0-1.54-3.8-1.16-3.8-3.46
		c0-1.26,1.13-1.95,2.41-1.95c1.49,0,2.17,0.77,2.17,0.77l-0.43,0.73c0,0-0.6-0.64-1.77-0.64c-0.71,0-1.4,0.31-1.4,1.09
		c0,1.55,3.8,1.13,3.8,3.46c0,1.15-0.99,1.98-2.41,1.98c-1.71,0-2.61-1.02-2.61-1.02L234.93,52.94z"/>
	<path class="st0" d="M244.39,47.27c2.06,0,3.73,1.57,3.73,3.66c0,2.13-1.67,3.73-3.73,3.73c-2.06,0-3.73-1.6-3.73-3.73
		C240.67,48.83,242.33,47.27,244.39,47.27z M244.39,53.79c1.51,0,2.75-1.23,2.75-2.87c0-1.6-1.23-2.79-2.75-2.79
		s-2.75,1.19-2.75,2.79C241.65,52.56,242.88,53.79,244.39,53.79z"/>
	<path class="st0" d="M249.89,47.43h0.94v1.25c0,0.31-0.03,0.56-0.03,0.56h0.03c0.34-1.06,1.12-1.88,2.23-1.88
		c0.2,0,0.38,0.04,0.38,0.04v0.94c0,0-0.17-0.03-0.35-0.03c-1,0-1.74,0.78-2.05,1.82c-0.14,0.45-0.2,0.92-0.2,1.37v2.97h-0.95V47.43
		z"/>
	<path class="st0" d="M255.16,44.63h5.18v0.87h-4.22v3.7h3.61v0.87h-3.61v4.41h-0.97V44.63z"/>
	<path class="st0" d="M262,44.63h0.95v7.97c0,0.92,0.42,1.06,0.78,1.06c0.13,0,0.24-0.01,0.24-0.01v0.85c0,0-0.17,0.03-0.35,0.03
		c-0.59,0-1.62-0.18-1.62-1.72V44.63z"/>
	<path class="st0" d="M268.74,47.27c2.06,0,3.73,1.57,3.73,3.66c0,2.13-1.67,3.73-3.73,3.73c-2.06,0-3.73-1.6-3.73-3.73
		C265.01,48.83,266.68,47.27,268.74,47.27z M268.74,53.79c1.51,0,2.75-1.23,2.75-2.87c0-1.6-1.23-2.79-2.75-2.79
		S266,49.33,266,50.92C266,52.56,267.23,53.79,268.74,53.79z"/>
	<path class="st0" d="M273.33,47.43h1.01l1.71,5.25c0.11,0.34,0.21,0.76,0.21,0.76h0.03c0,0,0.1-0.42,0.21-0.76l1.74-5.22h0.94
		l1.74,5.22c0.11,0.34,0.21,0.76,0.21,0.76h0.03c0,0,0.1-0.41,0.21-0.76l1.71-5.25h1.01l-2.38,7.05h-1.04l-1.72-5.01
		c-0.13-0.35-0.22-0.76-0.22-0.76h-0.03c0,0-0.1,0.41-0.21,0.76l-1.72,5.01h-1.04L273.33,47.43z"/>
</g>
<rect x="129.5" class="st11" width="180" height="30"/>
<g>
	<path class="st0" d="M178.74,17.34h-3.96l-1.12,3.14h-1.02l3.61-9.85h1.04l3.61,9.85h-1.02L178.74,17.34z M176.75,11.66
		c0,0-0.21,0.81-0.38,1.27l-1.32,3.57h3.39l-1.29-3.57c-0.17-0.46-0.38-1.27-0.38-1.27H176.75z"/>
	<path class="st0" d="M182.5,10.63h0.97v9.85h-0.97V10.63z"/>
	<path class="st0" d="M194.95,17.34h-3.96l-1.12,3.14h-1.02l3.61-9.85h1.04l3.61,9.85h-1.02L194.95,17.34z M192.96,11.66
		c0,0-0.21,0.81-0.38,1.27l-1.32,3.57h3.39l-1.29-3.57c-0.17-0.46-0.38-1.27-0.38-1.27H192.96z"/>
	<path class="st0" d="M198.43,13.43h0.91v0.69c0,0.31-0.03,0.55-0.03,0.55h0.03c0,0,0.57-1.4,2.44-1.4c1.89,0,3.07,1.51,3.07,3.7
		c0,2.23-1.33,3.68-3.15,3.68c-1.69,0-2.31-1.34-2.31-1.34h-0.03c0,0,0.03,0.25,0.03,0.62v3.36h-0.95V13.43z M201.6,19.81
		c1.25,0,2.27-1.05,2.27-2.84c0-1.72-0.91-2.83-2.23-2.83c-1.18,0-2.28,0.84-2.28,2.84C199.36,18.39,200.14,19.81,201.6,19.81z"/>
	<path class="st0" d="M206.68,13.43h0.91v0.69c0,0.31-0.03,0.55-0.03,0.55h0.03c0,0,0.57-1.4,2.44-1.4c1.89,0,3.07,1.51,3.07,3.7
		c0,2.23-1.33,3.68-3.15,3.68c-1.69,0-2.31-1.34-2.31-1.34h-0.03c0,0,0.03,0.25,0.03,0.62v3.36h-0.95V13.43z M209.84,19.81
		c1.25,0,2.27-1.05,2.27-2.84c0-1.72-0.91-2.83-2.23-2.83c-1.18,0-2.28,0.84-2.28,2.84C207.6,18.39,208.39,19.81,209.84,19.81z"/>
	<path class="st0" d="M214.85,10.63h0.95v7.97c0,0.92,0.42,1.06,0.78,1.06c0.13,0,0.24-0.01,0.24-0.01v0.85c0,0-0.17,0.03-0.35,0.03
		c-0.59,0-1.62-0.18-1.62-1.72V10.63z"/>
	<path class="st0" d="M218.35,10.63h1v1.19h-1V10.63z M218.38,13.43h0.95v7.05h-0.95V13.43z"/>
	<path class="st0" d="M224.84,13.27c1.72,0,2.58,1.01,2.58,1.01l-0.49,0.71c0,0-0.78-0.85-2.06-0.85c-1.54,0-2.75,1.15-2.75,2.83
		c0,1.65,1.22,2.83,2.77,2.83c1.43,0,2.26-0.99,2.26-0.99l0.43,0.74c0,0-0.95,1.11-2.75,1.11c-2.09,0-3.7-1.5-3.7-3.68
		C221.14,14.79,222.76,13.27,224.84,13.27z"/>
	<path class="st0" d="M233.06,16.12h0.39v-0.18c0-1.36-0.74-1.82-1.75-1.82c-1.16,0-1.99,0.67-1.99,0.67l-0.45-0.73
		c0,0,0.92-0.8,2.51-0.8c1.7,0,2.63,0.94,2.63,2.7v4.51h-0.91v-0.77c0-0.35,0.03-0.59,0.03-0.59h-0.03c0,0-0.59,1.53-2.35,1.53
		c-1.18,0-2.4-0.69-2.4-2.09C228.74,16.18,231.84,16.12,233.06,16.12z M231.29,19.84c1.34,0,2.16-1.4,2.16-2.62v-0.31h-0.41
		c-1.11,0-3.32,0.04-3.32,1.6C229.72,19.16,230.24,19.84,231.29,19.84z"/>
	<path class="st0" d="M236.82,14.32h-0.92v-0.8h0.94v-2.03h0.94v2.03h1.76v0.8h-1.76v3.5c0,1.65,1.05,1.86,1.58,1.86
		c0.2,0,0.32-0.03,0.32-0.03v0.85c0,0-0.15,0.03-0.41,0.03c-0.81,0-2.45-0.27-2.45-2.62V14.32z"/>
	<path class="st0" d="M241.22,10.63h0.99v1.19h-0.99V10.63z M241.24,13.43h0.95v7.05h-0.95V13.43z"/>
	<path class="st0" d="M247.7,13.27c2.06,0,3.73,1.57,3.73,3.66c0,2.13-1.67,3.73-3.73,3.73c-2.06,0-3.73-1.6-3.73-3.73
		C243.97,14.83,245.64,13.27,247.7,13.27z M247.7,19.79c1.51,0,2.75-1.23,2.75-2.87c0-1.6-1.23-2.79-2.75-2.79s-2.75,1.19-2.75,2.79
		C244.95,18.56,246.19,19.79,247.7,19.79z"/>
	<path class="st0" d="M253.2,13.43h0.94v1.05c0,0.31-0.03,0.56-0.03,0.56h0.03c0.25-0.64,1.15-1.78,2.82-1.78
		c1.74,0,2.35,0.99,2.35,2.73v4.48h-0.95v-4.23c0-1.11-0.17-2.09-1.53-2.09c-1.2,0-2.24,0.83-2.56,1.99
		c-0.08,0.29-0.11,0.62-0.11,0.95v3.38h-0.95V13.43z"/>
	<path class="st0" d="M261.45,18.94c0,0,0.78,0.85,2.1,0.85c0.76,0,1.42-0.38,1.42-1.12c0-1.54-3.8-1.16-3.8-3.46
		c0-1.26,1.13-1.95,2.41-1.95c1.49,0,2.17,0.77,2.17,0.77l-0.43,0.73c0,0-0.6-0.64-1.77-0.64c-0.71,0-1.4,0.31-1.4,1.09
		c0,1.55,3.8,1.13,3.8,3.46c0,1.15-0.99,1.98-2.41,1.98c-1.71,0-2.61-1.02-2.61-1.02L261.45,18.94z"/>
</g>
<line class="st12" x1="219.5" y1="66" x2="219.5" y2="74"/>
<g>
</g>
<g>
</g>
<g>
</g>
<g>
</g>
<g>
</g>
<g>
</g>
<g>
</g>
<g>
</g>
<g>
</g>
<g>
</g>
<g>
</g>
<g>
</g>
<g>
</g>
<g>
</g>
<g>
</g>
</svg>
